<svg width="214" height="214" viewBox="0 0 214 214" fill="none" xmlns="http://www.w3.org/2000/svg">
<path d="M109.622 7.50375C109.945 3.35264 111.909 0.913603 115.34 1.18051C117.802 1.37379 119.609 2.82811 119.498 6.04943L117.655 5.91146C117.617 3.96936 116.953 2.97536 115.275 2.84642C112.351 2.61639 111.771 5.4144 111.596 7.68775C111.392 10.3018 111.687 12.75 114.381 12.9617C115.58 13.0537 116.418 12.658 117.156 12.0689L117.377 9.19725L114.343 8.9671L114.464 7.38409L119.342 7.76138L118.797 14.7381L117.304 14.6276L117.415 13.201C116.953 13.8084 115.727 14.7289 113.818 14.5816C110.296 14.2963 109.355 10.9276 109.622 7.50375Z" fill="white"/>
<path d="M126.203 2.77246L128.075 3.18662L125.604 14.2591L132.105 15.7042L131.746 17.2964L123.372 15.4372L126.203 2.77246Z" fill="white"/>
<path d="M137.564 14.2778L140.542 6.42676L142.332 7.10794L139.353 14.9589C138.532 17.1127 138.911 18.1343 140.616 18.7786C142.322 19.4229 143.281 18.8983 144.102 16.7446L147.081 8.89351L148.87 9.57458L145.891 17.4256C144.702 20.5642 142.847 21.4202 140.027 20.3525C137.204 19.2848 136.374 17.4164 137.564 14.2778Z" fill="white"/>
<path d="M156.818 15.318L152.982 13.2011L153.774 11.7744L163.153 16.9563L162.36 18.383L158.487 16.2385L152.982 26.1696L151.304 25.2492L156.818 15.318Z" fill="white"/>
<path d="M167.874 20.1221L174.625 25.221L173.638 26.5281L168.419 22.5887L166.058 25.7089L170.595 29.142L169.608 30.4489L165.071 27.025L162.554 30.3477L167.773 34.2871L166.786 35.594L160.037 30.495L167.874 20.1221Z" fill="white"/>
<path d="M179.67 29.6392L181.477 31.4523L176.451 42.175L178.95 39.4047L184.197 34.1951L185.415 35.4193L176.193 44.5681L174.386 42.755L179.412 32.0323L176.913 34.8027L171.665 40.0122L170.448 38.788L179.67 29.6392Z" fill="white"/>
<path d="M192.727 54.5454L201.903 56.0088L198.159 64.495L188.983 63.0315L192.727 54.5454Z" fill="white"/>
<path d="M210.248 80.9697L211.05 84.679C211.733 87.8267 210.903 90.2198 208.183 90.8088C205.463 91.3978 203.719 89.5846 203.037 86.4092L202.641 84.5685L197.956 85.5809L197.55 83.7125L210.248 80.9697ZM204.236 84.2279L204.641 86.0963C205.158 88.4801 206.329 89.1889 207.768 88.8851C209.188 88.5815 209.98 87.4401 209.465 85.0655L209.059 83.1971L204.236 84.2279Z" fill="white"/>
<path d="M213.181 98.9274L213.328 100.989L200.685 106.465L200.538 104.404L203.543 103.152L203.194 98.1082L200.039 97.289L199.902 95.2734L213.181 98.9274ZM204.78 98.458L205.065 102.545L206.974 101.744L211.271 100.059L206.781 98.9918L204.78 98.458Z" fill="white"/>
<path d="M213.54 110.957L213.401 112.862L202.068 112.071L201.598 118.707L199.966 118.596L200.566 110.064L213.54 110.957Z" fill="white"/>
<path d="M212.147 125.305L211.612 127.781L207.066 128.306L204.088 128.564L206.706 130L210.635 132.356L210.119 134.767L197.401 132.034L197.771 130.349L205.212 131.951L208.716 132.871L201.837 128.803L202.152 127.367L210.1 126.484L206.532 125.876L199.09 124.275L199.449 122.59L212.147 125.305Z" fill="white"/>
<path d="M197.282 150.682C200.989 152.698 202.483 155.394 200.804 158.468C199.135 161.524 196.157 161.708 192.506 159.72C188.798 157.704 187.323 155.017 189.001 151.952C190.67 148.896 193.657 148.713 197.282 150.682ZM193.4 157.944C195.326 158.992 198.01 160.135 199.375 157.631C200.74 155.127 198.324 153.498 196.396 152.449C194.497 151.418 191.814 150.267 190.44 152.781C189.075 155.283 191.491 156.913 193.4 157.944Z" fill="white"/>
<path d="M185.812 160.935L183.911 163.485L191.713 169.283L193.613 166.733L194.923 167.71L189.998 174.318L188.688 173.342L190.579 170.811L182.778 165.013L180.887 167.543L179.577 166.568L184.512 159.959L185.812 160.935Z" fill="white"/>
<path d="M185.46 179.564L184.114 180.916L176.045 172.928L171.352 177.649L170.189 176.499L176.23 170.424L185.46 179.564Z" fill="white"/>
<path d="M160.598 192.772L159.197 201.93L150.676 198.247L152.078 189.081L160.598 192.772Z" fill="white"/>
<path d="M132.925 201.276L131.1 201.681C130.685 200.246 129.532 199.647 127.669 200.061C125.963 200.438 124.986 201.367 125.271 202.647C125.493 203.632 126.25 203.935 127.485 204.092L130.426 204.451C132.077 204.653 133.571 205.334 133.986 207.176C134.484 209.422 132.797 211.051 130.297 211.603C127.734 212.174 125.677 211.336 125.079 208.731L126.876 208.326C127.366 210.102 128.721 210.249 129.984 209.974C131.625 209.606 132.335 208.676 132.105 207.636C131.911 206.78 131.211 206.375 130.095 206.246L127.154 205.887C124.95 205.62 123.806 204.957 123.418 203.227C122.837 200.641 124.682 199.057 127.319 198.468C130.196 197.825 132.363 198.736 132.925 201.276Z" fill="white"/>
<path d="M119.028 204.875L119.674 213.242L117.765 213.389L117.12 205.022C116.945 202.73 116.16 201.957 114.353 202.095C112.537 202.233 111.891 203.117 112.066 205.409L112.721 213.784L110.811 213.932L110.157 205.565C109.899 202.215 111.209 200.659 114.224 200.429C117.23 200.19 118.77 201.524 119.028 204.875Z" fill="white"/>
<path d="M105.63 207.544C105.362 211.704 103.435 214.162 100.005 213.941C97.5425 213.785 95.7166 212.358 95.7811 209.136L97.6255 209.256C97.69 211.198 98.3632 212.183 100.042 212.293C102.965 212.477 103.509 209.679 103.656 207.406C103.822 204.792 103.49 202.343 100.798 202.178C99.5988 202.105 98.7689 202.51 98.0404 203.107L97.856 205.98L100.89 206.173L100.788 207.756L95.9103 207.453L96.3529 200.476L97.8467 200.567L97.7546 201.994C98.2064 201.377 99.4236 200.438 101.333 200.559C104.864 200.761 105.851 204.121 105.63 207.544Z" fill="white"/>
<path d="M86.1257 211.888L84.097 211.464L82.2527 197.825L84.2815 198.248L84.6687 201.478L89.6298 202.51L91.2713 199.702L93.254 200.117L86.1257 211.888ZM88.8646 203.955L84.844 203.117L85.1021 205.169L85.5632 209.753L87.8132 205.731L88.8646 203.955Z" fill="white"/>
<path d="M74.3955 208.943L71.2326 207.793C68.0881 206.651 66.6311 204.653 67.5163 202.233C68.2355 200.264 69.9416 199.462 71.7858 199.665L69.7571 193.443L72.0072 194.263L73.7593 200.043L75.3823 200.631L77.0329 196.094L78.8311 196.747L74.3955 208.943ZM74.8382 202.131L73.455 201.625C71.1588 200.788 69.9323 201.395 69.4251 202.786C68.9272 204.147 69.4713 205.417 71.7674 206.255L73.1506 206.761L74.8382 202.131Z" fill="white"/>
<path d="M51.932 191.943L43.0055 194.511L42.7841 185.242L51.7107 182.674L51.932 191.943Z" fill="white"/>
<path d="M24.8029 175.486L22.4883 172.476C20.5242 169.918 20.2475 167.404 22.4606 165.711C24.6739 164.018 27.0161 164.911 28.9987 167.487L30.1514 168.988L33.9507 166.07L35.1127 167.589L24.8029 175.486ZM28.8512 169.982L27.6892 168.463C26.2047 166.531 24.8398 166.384 23.6688 167.277C22.5161 168.16 22.2854 169.521 23.7794 171.454L24.9412 172.974L28.8512 169.982Z" fill="white"/>
<path d="M15.9779 163.199L14.3271 160.272C12.6858 157.363 12.8886 154.906 15.1387 153.636C16.9645 152.605 18.7904 153.12 20.0538 154.464L22.5804 148.427L23.7608 150.515L21.3171 156.038L22.1655 157.538L26.3889 155.172L27.3296 156.839L15.9779 163.199ZM20.7639 158.321L20.0445 157.041C18.8458 154.914 17.5178 154.575 16.2361 155.301C14.9726 156.01 14.5485 157.335 15.7473 159.462L16.4666 160.741L20.7639 158.321Z" fill="white"/>
<path d="M8.98739 149.788L5.92584 141.92L7.4474 141.331L9.81727 147.423L13.469 146.006L11.4126 140.704L12.9341 140.116L14.9906 145.417L18.882 143.907L16.5121 137.814L18.0337 137.225L21.0952 145.095L8.98739 149.788Z" fill="white"/>
<path d="M13.1564 134.133L12.7322 132.32C14.1708 131.897 14.7609 130.746 14.3276 128.887C13.931 127.184 12.9997 126.218 11.7178 126.512C10.7311 126.742 10.4269 127.497 10.2885 128.73L9.94729 131.667C9.76292 133.314 9.08969 134.814 7.24544 135.237C4.99534 135.753 3.35389 134.078 2.78224 131.593C2.19203 129.034 3.01275 126.982 5.61314 126.355L6.02815 128.15C4.24836 128.656 4.11931 130.01 4.40513 131.262C4.78326 132.899 5.72388 133.599 6.75669 133.36C7.61429 133.167 8.01085 132.458 8.13063 131.344L8.47189 128.408C8.72084 126.199 9.37564 125.057 11.1093 124.662C13.6912 124.064 15.2958 125.896 15.9044 128.518C16.596 131.381 15.7015 133.544 13.1564 134.133Z" fill="white"/>
<path d="M1.03921 120.658L0.329102 112.246L1.96139 112.107L2.51461 118.624L6.4246 118.292L5.945 112.623L7.5773 112.486L8.05677 118.155L12.2157 117.804L11.6624 111.289L13.2947 111.15L14.0046 119.572L1.03921 120.658Z" fill="white"/>
<path d="M0.255005 105.554L0.43949 102.204C0.623855 98.872 2.11781 96.9023 4.69977 97.0495C6.79309 97.1692 8.05642 98.5775 8.38839 100.391L13.7738 96.6538L13.6354 99.0468L8.60047 102.388L8.50829 104.109L13.3403 104.376L13.2297 106.281L0.255005 105.554ZM6.92215 104.017L7.00517 102.544C7.14351 100.105 6.20289 99.1113 4.72748 99.0284C3.27968 98.9456 2.21 99.8292 2.07166 102.268L1.98864 103.741L6.92215 104.017Z" fill="white"/>
<path d="M1.29758 91.9778L1.70342 89.9712L9.05296 89.0784L13.4147 88.6367L9.58774 86.6025L3.10508 82.9301L3.50152 80.9697L15.3512 87.9923L14.9362 90.0633L1.29758 91.9778Z" fill="white"/>
<path d="M6.0918 72.8702L6.78335 70.9189L20.5695 70.9467L19.878 72.8979L16.6228 72.8426L14.926 77.6103L17.4895 79.6168L16.8071 81.5221L6.0918 72.8702ZM13.6073 76.6531L14.9813 72.7966L12.9064 72.769L8.29574 72.5941L11.9842 75.3646L13.6073 76.6531Z" fill="white"/>
<path d="M13.516 59.6724L11.4781 63.5381L10.0303 62.7742L15.0192 53.3032L16.467 54.0672L14.4106 57.9789L24.4713 63.262L23.5768 64.9556L13.516 59.6724Z" fill="white"/>
<path d="M27.2928 55.1898L29.1556 52.6127L21.2712 46.9246L19.4085 49.5018L18.0806 48.5445L22.9219 41.8716L24.2497 42.8288L22.3962 45.3875L30.2806 51.0756L32.1341 48.5169L33.4529 49.474L28.6115 56.147L27.2928 55.1898Z" fill="white"/>
<path d="M26.3156 37.6563L27.7448 36.1837L34.4212 39.3867L38.3404 41.3655L36.2194 37.5919L32.7429 31.0111L34.1354 29.5752L40.3138 41.8717L38.8384 43.3997L26.3156 37.6563Z" fill="white"/>
<path d="M38.229 26.0406L44.9053 20.8496L45.9105 22.1381L40.7465 26.1511L43.1532 29.2345L47.6441 25.7461L48.6494 27.0348L44.1584 30.523L46.722 33.8089L51.8861 29.7959L52.8912 31.0845L46.2148 36.2755L38.229 26.0406Z" fill="white"/>
<path d="M54.4493 25.5344L56.0723 24.6047C56.893 25.8565 58.1656 26.0866 59.8347 25.1387C61.3562 24.2735 62.011 23.0953 61.3562 21.9632C60.849 21.0796 60.0467 21.0152 58.8203 21.2361L55.9064 21.7607C54.2741 22.0553 52.6419 21.8527 51.7013 20.2144C50.5578 18.2171 51.6921 16.1647 53.9145 14.8945C56.1922 13.5875 58.4054 13.7901 59.7516 16.091L58.1472 17.0023C57.1512 15.4467 55.8141 15.7136 54.6891 16.3488C53.2321 17.1864 52.8264 18.2908 53.352 19.2113C53.7853 19.966 54.5785 20.1501 55.685 19.9475L58.5991 19.4229C60.7846 19.0271 62.0755 19.3216 62.9515 20.8587C64.2703 23.1597 62.9792 25.2123 60.637 26.556C58.0826 28.0195 55.7403 27.7894 54.4493 25.5344Z" fill="white"/>
<path d="M77.974 10.0992L82.3357 0.665039L90.3677 7.26434L86.0152 16.6984L77.974 10.0992Z" fill="white"/>
</svg>
