<svg width="93" height="55" viewBox="0 0 93 55" fill="none" xmlns="http://www.w3.org/2000/svg">
<path d="M43.3235 54.0256L45.8225 53.7316V15.9529C45.8225 8.74992 47.4399 5.58942 51.1884 0.150417V0.00341797H38.252V0.150417C42.1475 5.66292 43.6175 8.67642 43.691 16.0999L43.838 34.1806L16.643 0.00341797H0.252516V0.150417C3.70702 4.11942 5.25052 6.61842 5.61802 11.7634V37.8556C5.61802 45.2056 4.07452 48.2191 0.179016 53.6581V53.8051H13.409V53.6581C9.44001 48.2191 7.82302 45.0586 7.82302 37.8556L7.52902 9.33792L43.3235 54.0256ZM72.8079 54.9076C83.6124 54.9076 92.5794 46.1611 92.5794 35.9446C92.5794 25.7284 83.6124 16.8349 72.8079 16.8349C62.0034 16.8349 53.0364 25.7284 53.0364 35.9446C53.0364 46.1611 62.0034 54.9076 72.8079 54.9076ZM72.8079 53.5111C67.5894 53.5111 65.2374 46.3816 65.2374 35.9446C65.2374 25.5079 67.5159 18.2314 72.8079 18.2314C78.0264 18.2314 80.3784 25.5079 80.3784 35.9446C80.3784 46.3816 78.0264 53.5111 72.8079 53.5111Z" fill="white"/>
</svg>
